<?xml version="1.0"?>
<svg xmlns="http://www.w3.org/2000/svg" xmlns:xlink="http://www.w3.org/1999/xlink" version="1.1" id="Capa_1" x="0px" y="0px" viewBox="0 0 512 512" style="enable-background:new 0 0 512 512;" xml:space="preserve" width="512px" height="512px"><g><g>
	<g>
		<path d="M437.019,74.981C388.666,26.629,324.379,0,256,0C187.619,0,123.332,26.629,74.979,74.981C26.628,123.333,0,187.62,0,256    s26.628,132.667,74.979,181.02C123.332,485.371,187.619,512,256,512c8.283,0,15-6.716,15-15s-6.717-15-15-15    C131.383,482,30,380.617,30,256S131.383,30,256,30c124.616,0,226,101.383,226,226v60.25c0,24.951-20.299,45.25-45.25,45.25    s-45.25-20.299-45.25-45.25V256c0-74.715-60.785-135.5-135.5-135.5S120.5,181.285,120.5,256S181.285,391.5,256,391.5    c44.316,0,83.73-21.386,108.468-54.378c9.072,31.368,38.031,54.378,72.282,54.378c41.493,0,75.25-33.757,75.25-75.25V256    C512,187.62,485.371,123.333,437.019,74.981z M256,361.5c-58.174,0-105.5-47.327-105.5-105.5c0-58.173,47.326-105.5,105.5-105.5    c58.173,0,105.5,47.327,105.5,105.5C361.5,314.173,314.173,361.5,256,361.5z" data-original="#000000" class="active-path" data-old_color="#000000" fill="#AAAAAA"/>
	</g>
</g></g> </svg>
