<svg width="16" height="16" viewBox="0 0 16 16" fill="none" xmlns="http://www.w3.org/2000/svg">
<path d="M15.6377 7.87727L8.84548 1.0886L8.39021 0.633327C8.28648 0.530278 8.14619 0.472443 7.99997 0.472443C7.85376 0.472443 7.71347 0.530278 7.60974 0.633327L0.36228 7.87727C0.255987 7.98315 0.171982 8.10925 0.115223 8.24813C0.0584644 8.38701 0.0301024 8.53585 0.0318111 8.68587C0.0388424 9.30462 0.553881 9.79856 1.17263 9.79856H1.9197V15.5238H14.0802V9.79856H14.8431C15.1437 9.79856 15.4267 9.68079 15.6394 9.46809C15.7442 9.3637 15.8271 9.23957 15.8836 9.10288C15.94 8.9662 15.9687 8.81968 15.9681 8.6718C15.9681 8.37298 15.8504 8.08997 15.6377 7.87727V7.87727ZM8.98435 14.2581H7.0156V10.6722H8.98435V14.2581ZM12.8146 8.53294V14.2581H10.1093V10.2503C10.1093 9.86184 9.7947 9.54719 9.40622 9.54719H6.59372C6.20525 9.54719 5.8906 9.86184 5.8906 10.2503V14.2581H3.18533V8.53294H1.49783L8.00173 2.0343L8.40779 2.44036L14.5039 8.53294H12.8146Z" fill="#8C8C8C"/>
</svg>
