<?xml version="1.0" encoding="utf-8"?>
<!-- Generator: Adobe Illustrator 24.1.2, SVG Export Plug-In . SVG Version: 6.00 Build 0)  -->
<svg version="1.1" id="Слой_1" xmlns="http://www.w3.org/2000/svg" xmlns:xlink="http://www.w3.org/1999/xlink" x="0px" y="0px"
	 viewBox="0 0 512 512" style="enable-background:new 0 0 512 512;" xml:space="preserve">
<g>
	<path d="M114.2,67c38.5-37.7,89.7-60.7,143-67c-18.7,28.8-43.6,52.7-67.9,76.6c-41.1,42.4-84.9,86-105.1,142.9
		c20.7-31.4,42.8-62,69.6-88.5c34.1-32.8,73.4-59.6,108.3-91.5c11.1-10.5,18.8-23.8,27.5-36.1c8,28-1.5,57.7-15.1,82.4
		c-28,48.6-79.8,75.8-114.2,119.1C119.8,250.5,84.8,305.1,78,367.1c-5.5,29.7,2.9,59.4,9.6,88.1c-40.1-41.4-63.6-97.9-65.8-155.5
		C16.7,213.7,52.1,126.6,114.2,67 M321.5,3.2c9.2,20.1,13.9,42.2,10.7,64.3c-3.6,37.9-26.7,69.6-46.2,100.9
		c42.5-38.5,73.5-92.6,71.5-151.3c17,26.5,18,60.8,4.7,89.1c-27.9,60.4-81.4,102.2-124.1,151.3c-21.7,21.6-37.8,48.5-47.9,77.3
		c-7.1,20.4-4.4,42.2-5.8,63.4c-23-34.4-31.7-78.3-19.1-118.2c18.8-60.1,65.6-104.6,107.3-149.5C303.9,95.8,324.1,50.6,321.5,3.2
		 M394.9,31.5c11.9,12.6,24,26,29.9,42.7c4.4,14.7,5.7,30.1,7,45.4c7.4,0.4,14.9,0.9,22.4,1.3c-8.7,2.4-17.3,4.9-25.9,7.4
		c9,33.5,42.2,50.5,61.9,77c-11.5,9.6-24.4,17.9-33.7,29.9c-1.1,11.9,16.8,17.3,13.3,29.7c-8.4,9.5-21.4,12.1-32.5,17.1
		c8.6,5.8,17.3,11.3,25.9,17.2c-7.2,5-14.9,9.5-21.3,15.4c-1.4,20.5,6,40.4,8.8,60.6c-8.2,6.5-16.8,13.9-27.7,14.7
		c-33,3.5-66.9-3.4-99.5,5.1c-14.2,3.1-27,10.5-39.9,17c-24.7-4.3-53.1-10.4-67.9-32.8c-10.9-18.2-3.7-40.3,4.6-57.9
		c22.5-46.6,66.2-77,98.6-116c29.5-32.4,58.6-67.5,70.9-110.3C396.9,74.6,394.7,52.7,394.9,31.5 M123.9,303.9
		c22.9,30.8,23.6,70.5,37.5,105c8.7,21.7,19.5,43.2,36.2,59.9c15.5,16.6,37.3,25.8,52.1,43.2c-30.7-9-64.4-9.9-92.2-27.2
		c-28.8-18.9-51.5-47.9-60.3-81.4c-7.8-31.3-1-64.3,16.3-91.1c-1.2,47.6,3.7,98.7,33.3,138c-5.1-15.8-12-30.9-15.9-47.1
		C123.5,370.6,123.9,337,123.9,303.9 M193.4,408.9c40.4,0.6,75.5,21.9,113.2,33.3c35.9,8.6,73.9,11.1,109.7,0.3
		c12.9-8.6,25.3-18,36.8-28.4c-7.8,18.6-16.1,37.7-31.3,51.6c-30.9,29.4-74.9,44-117.3,39.8c-47.7-1.6-93.4-33-109.2-78.6
		c28.8,16.7,55.7,37.4,87.8,47.6c19.6,7.9,40.9,7.9,61.7,7.1C287.5,475.7,237.8,443.6,193.4,408.9L193.4,408.9z"/>
</g>
</svg>
