<svg width="16" height="25" viewBox="0 0 16 25" fill="none" xmlns="http://www.w3.org/2000/svg">
<path d="M14.4201 15.7302H5.11543L5.58262 14.7786L13.3451 14.7646C13.6076 14.7646 13.8326 14.5771 13.8795 14.3177L14.9545 8.3005C14.9826 8.14269 14.9404 7.98019 14.8373 7.85675C14.7863 7.796 14.7228 7.74707 14.651 7.71334C14.5792 7.67961 14.501 7.6619 14.4217 7.66144L4.54668 7.62863L4.4623 7.23175C4.40918 6.97863 4.18105 6.79425 3.92168 6.79425H1.50762C1.36133 6.79425 1.22104 6.85236 1.1176 6.9558C1.01417 7.05924 0.956055 7.19953 0.956055 7.34581C0.956055 7.4921 1.01417 7.63239 1.1176 7.73583C1.22104 7.83926 1.36133 7.89738 1.50762 7.89738H3.4748L3.84355 9.6505L4.75137 14.0458L3.58262 15.9536C3.52192 16.0355 3.48536 16.1328 3.47708 16.2344C3.4688 16.336 3.48912 16.438 3.53574 16.5286C3.62949 16.7146 3.81855 16.8318 4.02793 16.8318H5.00918C4.79999 17.1096 4.687 17.448 4.6873 17.7958C4.6873 18.6802 5.40605 19.3989 6.29043 19.3989C7.1748 19.3989 7.89355 18.6802 7.89355 17.7958C7.89355 17.4474 7.77793 17.1083 7.57168 16.8318H10.0889C9.87968 17.1096 9.76669 17.448 9.76699 17.7958C9.76699 18.6802 10.4857 19.3989 11.3701 19.3989C12.2545 19.3989 12.9732 18.6802 12.9732 17.7958C12.9732 17.4474 12.8576 17.1083 12.6514 16.8318H14.4217C14.7248 16.8318 14.9732 16.5849 14.9732 16.2802C14.9723 16.1341 14.9137 15.9942 14.81 15.8912C14.7064 15.7881 14.5663 15.7303 14.4201 15.7302V15.7302ZM4.77637 8.71613L13.7732 8.74581L12.892 13.6802L5.8248 13.6927L4.77637 8.71613ZM6.29043 18.2896C6.01855 18.2896 5.79668 18.0677 5.79668 17.7958C5.79668 17.5239 6.01855 17.3021 6.29043 17.3021C6.5623 17.3021 6.78418 17.5239 6.78418 17.7958C6.78418 17.9268 6.73216 18.0524 6.63956 18.1449C6.54697 18.2375 6.42138 18.2896 6.29043 18.2896V18.2896ZM11.3701 18.2896C11.0982 18.2896 10.8764 18.0677 10.8764 17.7958C10.8764 17.5239 11.0982 17.3021 11.3701 17.3021C11.642 17.3021 11.8639 17.5239 11.8639 17.7958C11.8639 17.9268 11.8118 18.0524 11.7193 18.1449C11.6267 18.2375 11.5011 18.2896 11.3701 18.2896V18.2896Z" fill="white"/>
</svg>
