<?xml version="1.0" standalone="no"?>
<!DOCTYPE svg PUBLIC "-//W3C//DTD SVG 20010904//EN"
 "http://www.w3.org/TR/2001/REC-SVG-20010904/DTD/svg10.dtd">
<svg version="1.0" xmlns="http://www.w3.org/2000/svg"
 width="700.000000pt" height="700.000000pt" viewBox="0 0 700.000000 700.000000"
 preserveAspectRatio="xMidYMid meet">
<metadata>
Created by potrace 1.11, written by Peter Selinger 2001-2013
</metadata>
<g transform="translate(0.000000,700.000000) scale(0.100000,-0.100000)"
fill="#000000" stroke="none">
<path d="M3460 6993 c-191 -30 -366 -66 -480 -99 -297 -87 -621 -226 -818
-351 -29 -18 -54 -33 -57 -33 -7 0 -157 -104 -240 -166 -292 -218 -612 -559
-844 -899 -163 -239 -336 -564 -436 -820 -25 -66 -50 -129 -55 -140 -20 -46
-113 -360 -123 -415 -3 -14 -12 -54 -21 -90 -24 -97 -57 -294 -71 -420 -26
-231 -26 -731 1 -897 11 -73 14 -91 20 -138 11 -91 54 -281 95 -421 124 -425
352 -852 628 -1174 85 -99 124 -140 131 -140 3 0 -2 33 -12 73 -27 104 -86
367 -92 413 -4 22 -8 49 -10 59 -2 11 -7 45 -11 75 -4 30 -9 64 -12 75 -2 11
-5 92 -7 180 -3 154 3 212 48 512 12 74 65 282 103 397 161 493 452 985 887
1501 28 33 53 62 56 65 3 3 41 48 85 100 78 93 307 328 415 425 67 61 194 173
234 206 16 13 39 33 50 44 12 11 55 49 96 85 178 154 387 362 502 500 254 303
423 669 468 1015 8 61 6 273 -3 312 -3 11 -9 42 -12 67 -4 26 -10 48 -14 50
-3 2 -50 -60 -103 -138 -53 -77 -127 -178 -163 -223 -79 -98 -302 -299 -565
-508 -41 -33 -77 -62 -80 -66 -3 -3 -86 -70 -185 -149 -99 -79 -182 -146 -185
-149 -3 -3 -40 -35 -84 -70 -80 -65 -85 -69 -171 -141 -306 -258 -593 -562
-855 -905 -87 -114 -255 -350 -350 -492 -30 -45 -55 -81 -57 -79 -3 3 33 98
64 166 43 98 148 298 207 395 111 180 297 435 433 593 58 67 192 220 213 243
186 199 355 375 627 649 374 377 376 380 517 545 99 115 286 362 286 378 0 7
-6 7 -50 0z"/>
<path d="M4394 6792 c-1 -81 -7 -181 -14 -222 -6 -41 -14 -88 -16 -105 -37
-243 -170 -578 -336 -850 -65 -108 -215 -305 -299 -397 -48 -51 -231 -246
-271 -288 -77 -82 -268 -288 -304 -330 -21 -25 -41 -47 -44 -50 -42 -38 -317
-381 -393 -490 -302 -432 -478 -834 -524 -1195 -15 -117 -9 -406 11 -501 2
-12 7 -39 10 -60 12 -76 59 -241 98 -340 64 -168 207 -432 209 -388 1 10 3 80
5 154 13 524 24 587 146 873 52 122 137 293 169 339 11 14 19 29 19 32 0 10
128 194 187 271 59 76 91 112 192 220 36 39 105 113 152 165 111 121 149 162
408 429 326 336 419 435 549 587 276 321 508 675 621 945 130 310 140 646 30
949 -21 56 -100 222 -104 218 -2 -2 -5 -64 -8 -138 -28 -669 -348 -1323 -912
-1860 -32 -30 -54 -48 -49 -40 4 8 54 88 110 176 200 317 299 497 378 689 56
139 107 321 122 440 31 244 20 438 -36 641 -24 87 -92 274 -99 274 -4 0 -7
-67 -7 -148z"/>
<path d="M5400 6330 c-1 -378 -11 -451 -97 -709 -71 -213 -156 -388 -298 -617
-95 -152 -357 -493 -492 -639 -10 -11 -49 -56 -88 -100 -38 -43 -77 -86 -85
-95 -8 -10 -42 -48 -75 -86 -33 -38 -200 -211 -371 -384 -331 -334 -357 -361
-438 -454 -28 -32 -60 -68 -71 -80 -36 -37 -153 -192 -221 -293 -71 -106 -199
-358 -233 -462 -137 -406 -24 -687 350 -873 55 -28 106 -51 112 -52 7 -2 19
-6 27 -9 31 -12 147 -45 195 -57 28 -6 66 -15 85 -20 19 -4 67 -14 105 -20
l70 -12 170 83 c224 111 370 158 565 185 19 3 49 7 65 11 17 3 242 6 500 8
599 3 663 8 770 63 40 20 133 83 170 116 17 14 34 26 38 26 8 0 2 74 -8 110
-2 8 -7 31 -10 50 -3 19 -15 77 -26 129 -30 136 -29 134 -34 161 -2 14 -6 40
-9 57 -15 80 -23 164 -25 244 l-2 87 43 35 c24 19 89 67 146 105 l103 70 -33
25 c-18 13 -97 66 -176 117 -78 51 -141 94 -140 95 2 2 57 24 123 50 156 61
230 100 282 151 70 66 58 119 -58 257 -65 77 -79 103 -86 155 -3 29 4 40 84
121 48 48 152 138 231 200 78 62 142 114 142 117 0 14 -128 152 -259 279 -302
292 -367 361 -444 472 -45 66 -122 222 -131 269 -7 29 -6 30 51 47 303 89 292
85 238 87 -27 1 -66 3 -85 5 -19 1 -60 4 -90 5 -30 2 -60 5 -67 7 -9 4 -19 70
-28 193 -9 123 -45 320 -77 420 -29 89 -109 236 -175 320 -46 59 -120 145
-171 200 l-61 65 -1 -235z"/>
<path d="M1696 2548 c2 -351 12 -527 39 -743 9 -76 45 -287 50 -295 2 -4 7
-21 10 -38 11 -62 62 -213 172 -511 19 -51 32 -95 30 -97 -15 -15 -185 287
-237 421 -17 44 -35 89 -40 100 -22 50 -80 259 -94 339 -3 16 -10 52 -16 80
-5 28 -12 67 -14 86 -2 19 -9 71 -15 115 -22 166 -29 304 -30 553 -1 90 -5
161 -9 158 -15 -9 -140 -270 -166 -346 -28 -83 -61 -214 -70 -275 -3 -22 -8
-60 -12 -85 -8 -58 -8 -260 0 -330 25 -217 117 -473 244 -677 187 -302 492
-585 767 -712 118 -55 369 -131 545 -165 14 -3 72 -14 130 -26 58 -12 116 -23
130 -26 14 -2 87 -20 163 -38 l138 -33 -23 25 c-76 82 -143 137 -433 351 -320
236 -513 484 -684 881 -23 52 -46 104 -50 115 -53 119 -162 485 -196 657 -12
57 -72 269 -102 358 -54 160 -196 440 -222 440 -4 0 -7 -127 -5 -282z"/>
<path d="M2665 1395 c11 -8 29 -23 40 -32 11 -10 90 -69 175 -131 441 -326
846 -550 1225 -679 110 -38 334 -98 405 -108 24 -4 48 -9 51 -11 4 -2 26 -5
48 -6 23 -1 41 -6 41 -11 0 -10 -335 -3 -430 8 -300 37 -671 193 -1110 468
-190 119 -423 262 -431 265 -10 4 24 -85 67 -171 40 -82 144 -241 201 -306
179 -209 380 -351 678 -481 78 -34 237 -75 372 -95 124 -19 475 -28 573 -15
36 5 81 11 100 14 463 62 981 348 1231 679 32 42 77 110 101 150 45 76 192
387 186 393 -2 1 -17 -9 -33 -24 -59 -54 -247 -200 -355 -276 -99 -70 -119
-80 -207 -102 -54 -14 -113 -27 -132 -30 -18 -3 -43 -7 -55 -10 -23 -4 -86
-11 -206 -23 -83 -9 -415 -7 -470 3 -19 3 -62 8 -95 11 -113 11 -347 54 -445
81 -83 23 -301 103 -540 197 -448 176 -653 232 -920 252 -78 6 -83 5 -65 -10z"/>
</g>
</svg>
